<svg width="129" height="40" viewBox="0 0 129 40" fill="none" xmlns="http://www.w3.org/2000/svg">
<path d="M40.0166 22.04C40.3153 21.5493 40.71 21.1227 41.2006 20.76C41.7126 20.376 42.2673 20.056 42.8646 19.8C43.4833 19.544 44.134 19.352 44.8166 19.224C45.4993 19.096 46.182 19.032 46.8646 19.032H47.2806V23H46.8646C46.0966 23 45.3073 23.16 44.4966 23.48C43.686 23.7787 42.9393 24.184 42.2566 24.696C41.5953 25.1867 41.0513 25.7413 40.6246 26.36C40.2193 26.9787 40.0166 27.5973 40.0166 28.216V35H36.0486V18.584H40.0166V22.04ZM49.2896 24.504C49.2896 23.7147 49.439 22.9787 49.7376 22.296C50.0363 21.592 50.431 20.9733 50.9216 20.44C51.4123 19.9067 51.9776 19.4907 52.6176 19.192C53.2576 18.872 53.8976 18.712 54.5376 18.712H58.1856C59.0176 18.712 59.7536 18.8933 60.3936 19.256C61.055 19.5973 61.599 20.0453 62.0256 20.6C62.4736 21.1333 62.815 21.7413 63.0496 22.424C63.3056 23.0853 63.4336 23.736 63.4336 24.376V28.504H53.0656V29.368C53.0656 30.136 53.279 30.68 53.7056 31C54.1323 31.32 54.6976 31.48 55.4016 31.48H62.8576V35.064H54.5696C53.8443 35.064 53.1616 34.9253 52.5216 34.648C51.8816 34.3493 51.3163 33.9547 50.8256 33.464C50.3563 32.9733 49.983 32.3867 49.7056 31.704C49.4283 31.0213 49.2896 30.2747 49.2896 29.464V24.504ZM53.0976 25.464H59.7216V25.304C59.7216 24.472 59.5083 23.7893 59.0816 23.256C58.655 22.7013 58.079 22.424 57.3536 22.424H55.3696C55.0283 22.424 54.719 22.5093 54.4416 22.68C54.1643 22.8293 53.9296 23.032 53.7376 23.288C53.5456 23.544 53.3856 23.8533 53.2576 24.216C53.151 24.5573 53.0976 24.92 53.0976 25.304V25.464ZM73.3811 35H69.7971L64.8691 18.712H68.4211L71.5571 29.048L74.5971 18.712H78.1811L73.3811 35Z" fill="white"/>
<path d="M79.7881 23.864C79.8521 23.1813 80.0015 22.5307 80.2361 21.912C80.4921 21.2933 80.8548 20.7493 81.3241 20.28C81.7935 19.8107 82.3801 19.4373 83.0841 19.16C83.7881 18.8613 84.5988 18.712 85.5161 18.712H87.4361C88.3961 18.712 89.2281 18.872 89.9321 19.192C90.6575 19.512 91.2548 19.9387 91.7241 20.472C92.1935 20.984 92.5455 21.5813 92.7801 22.264C93.0148 22.9253 93.1321 23.5973 93.1321 24.28V35H84.0441C83.3401 35 82.7108 34.872 82.1561 34.616C81.6015 34.3387 81.1321 33.9867 80.7481 33.56C80.3855 33.112 80.1081 32.5893 79.9161 31.992C79.7455 31.3947 79.6601 30.7547 79.6601 30.072C79.6601 29.4107 79.7561 28.792 79.9481 28.216C80.1401 27.64 80.4175 27.1493 80.7801 26.744C81.1428 26.3173 81.5908 25.9867 82.1241 25.752C82.6788 25.496 83.2975 25.368 83.9801 25.368H89.4521V25.048C89.4521 24.664 89.4201 24.312 89.3561 23.992C89.2921 23.6507 89.1748 23.3627 89.0041 23.128C88.8335 22.8933 88.5775 22.712 88.2361 22.584C87.8948 22.4347 87.4361 22.36 86.8601 22.36H86.0601C85.2068 22.36 84.5988 22.488 84.2361 22.744C83.8735 22.9787 83.6281 23.352 83.5001 23.864H79.7881ZM83.0841 30.072C83.0841 30.6267 83.1908 31.0427 83.4041 31.32C83.6388 31.576 83.8948 31.704 84.1721 31.704H89.4521V28.44H84.1721C83.8948 28.44 83.6388 28.5787 83.4041 28.856C83.1908 29.1333 83.0841 29.5387 83.0841 30.072ZM94.9041 18.712H97.9121V13.208H101.688V18.712H104.696V22.392H101.688V35H97.9121V22.392H94.9041V18.712ZM117.811 21.88H111.443C111.166 21.88 110.931 21.9333 110.739 22.04C110.568 22.1253 110.419 22.2533 110.291 22.424C110.163 22.5947 110.067 22.7867 110.003 23C109.939 23.192 109.907 23.384 109.907 23.576C109.907 23.9813 110.035 24.3547 110.291 24.696C110.568 25.016 110.899 25.176 111.283 25.176H114.867C115.614 25.176 116.264 25.304 116.819 25.56C117.395 25.816 117.864 26.168 118.227 26.616C118.611 27.064 118.888 27.5973 119.059 28.216C119.251 28.8347 119.347 29.496 119.347 30.2V30.296C119.347 31 119.23 31.64 118.995 32.216C118.782 32.792 118.472 33.2827 118.067 33.688C117.662 34.0933 117.182 34.4133 116.627 34.648C116.072 34.8827 115.486 35 114.867 35H107.123V31.832H113.779C114.27 31.832 114.718 31.6933 115.123 31.416C115.55 31.1387 115.774 30.7227 115.795 30.168V30.2C115.795 29.88 115.731 29.6133 115.603 29.4C115.496 29.1867 115.347 29.016 115.155 28.888C114.963 28.7387 114.75 28.632 114.515 28.568C114.28 28.504 114.035 28.472 113.779 28.472H110.899C109.96 28.472 109.182 28.3227 108.563 28.024C107.966 27.7253 107.486 27.3413 107.123 26.872C106.782 26.4027 106.547 25.8693 106.419 25.272C106.291 24.6747 106.227 24.0667 106.227 23.448C106.227 22.808 106.323 22.1893 106.515 21.592C106.707 20.9947 106.984 20.472 107.347 20.024C107.731 19.5547 108.2 19.192 108.755 18.936C109.31 18.68 109.939 18.552 110.643 18.552H117.811V21.88Z" fill="#00B3FF"/>
<path d="M22.6561 22.6987C22.6898 22.8826 22.7907 23 22.9918 23C23.1936 23 23.2938 22.8826 23.3439 22.6987C23.8978 20.0151 23.8641 19.9142 26.6815 19.3439C26.8662 19.3102 27 19.1929 27 19.0082C27 18.8071 26.8662 18.6898 26.6815 18.6561C23.8641 18.0858 23.8978 17.9856 23.3439 15.3185C23.2938 15.1338 23.1929 15 22.9918 15C22.7907 15 22.6898 15.1338 22.6561 15.3185C22.0858 17.9856 22.1194 18.0858 19.3185 18.6561C19.1174 18.6898 19 18.8071 19 19.0082C19 19.1936 19.1174 19.3102 19.3185 19.3439C22.1194 19.9142 22.0858 20.0151 22.6561 22.6987Z" fill="#FFD10E"/>
<path d="M14.8281 21.8117C14.8449 21.9266 14.8953 22 14.9959 22C15.0968 22 15.1469 21.9266 15.1719 21.8117C15.4489 20.1344 15.4321 20.0714 16.8408 19.7149C16.9331 19.6939 17 19.6205 17 19.5051C17 19.3795 16.9331 19.3061 16.8408 19.2851C15.4321 18.9286 15.4489 18.866 15.1719 17.199C15.1469 17.0836 15.0964 17 14.9959 17C14.8953 17 14.8449 17.0836 14.8281 17.199C14.5429 18.866 14.5597 18.9286 13.1592 19.2851C13.0587 19.3061 13 19.3795 13 19.5051C13 19.621 13.0587 19.6939 13.1592 19.7149C14.5597 20.0714 14.5429 20.1344 14.8281 21.8117Z" fill="#FFD10E"/>
<path d="M14.8281 13.8494C14.8449 13.9413 14.8953 14 14.9959 14C15.0968 14 15.1469 13.9413 15.1719 13.8494C15.4489 12.5076 15.4321 12.4571 16.8408 12.1719C16.9331 12.1551 17 12.0964 17 12.0041C17 11.9036 16.9331 11.8449 16.8408 11.8281C15.4321 11.5429 15.4489 11.4928 15.1719 10.1592C15.1469 10.0669 15.0964 10 14.9959 10C14.8953 10 14.8449 10.0669 14.8281 10.1592C14.5429 11.4928 14.5597 11.5429 13.1592 11.8281C13.0587 11.8449 13 11.9036 13 12.0041C13 12.0968 13.0587 12.1551 13.1592 12.1719C14.5597 12.4571 14.5429 12.5076 14.8281 13.8494Z" fill="#FFD10E"/>
<path fill-rule="evenodd" clip-rule="evenodd" d="M18.5342 37.8557H5.75423C3.27525 37.8557 2.02344 36.6281 2.02344 34.1618V16.2596C2.02344 13.8045 3.27525 12.5537 5.75423 12.5537H11.2898V21.2158C11.2898 22.7264 12.0118 23.4464 13.5521 23.4464H22.265V34.1618C22.265 36.6165 21.0255 37.8557 18.5342 37.8557Z" fill="#21ACFA"/>
<rect y="27.5508" width="24.7959" height="9.10871" rx="0.781924" fill="#00669F"/>
<path opacity="0.5" d="M12.1815 30.9371H11.4546C11.4338 30.8179 11.3956 30.7123 11.3399 30.6203C11.2842 30.527 11.2148 30.4479 11.1319 30.3831C11.049 30.3184 10.9544 30.2698 10.8481 30.2374C10.7432 30.2037 10.6298 30.1868 10.508 30.1868C10.2916 30.1868 10.0998 30.2413 9.93264 30.3501C9.76549 30.4577 9.63461 30.6157 9.54002 30.8244C9.44542 31.0317 9.39813 31.285 9.39813 31.5844C9.39813 31.8889 9.44542 32.1454 9.54002 32.3541C9.63591 32.5614 9.76678 32.7182 9.93264 32.8244C10.0998 32.9294 10.2909 32.9819 10.506 32.9819C10.6253 32.9819 10.7367 32.9663 10.8404 32.9352C10.9453 32.9028 11.0393 32.8555 11.1222 32.7933C11.2064 32.7311 11.277 32.6547 11.3341 32.564C11.3924 32.4733 11.4325 32.3696 11.4546 32.253L12.1815 32.2569C12.1543 32.4461 12.0953 32.6236 12.0046 32.7895C11.9152 32.9553 11.798 33.1017 11.6528 33.2287C11.5077 33.3544 11.3379 33.4529 11.1436 33.5242C10.9492 33.5941 10.7334 33.6291 10.4963 33.6291C10.1465 33.6291 9.83416 33.5481 9.55945 33.3862C9.28474 33.2242 9.06834 32.9903 8.91026 32.6845C8.75217 32.3787 8.67312 32.012 8.67312 31.5844C8.67312 31.1554 8.75282 30.7887 8.9122 30.4842C9.07158 30.1784 9.28863 29.9445 9.56334 29.7825C9.83805 29.6206 10.149 29.5396 10.4963 29.5396C10.7179 29.5396 10.9239 29.5707 11.1144 29.6329C11.3049 29.6951 11.4746 29.7864 11.6237 29.9069C11.7727 30.0262 11.8951 30.1726 11.991 30.3462C12.0882 30.5186 12.1517 30.7155 12.1815 30.9371ZM13.3745 29.594L14.4105 32.7273H14.4513L15.4853 29.594H16.2784L14.875 33.5747H13.9848L12.5834 29.594H13.3745Z" fill="white"/>
<rect x="7.3125" y="19.9844" width="4.69155" height="1.56385" rx="0.781924" fill="#0A0B24"/>
<rect x="7.3125" y="24.6758" width="10.165" height="1.56385" rx="0.781924" fill="#0A0B24"/>
<path d="M25.3447 6.41361L18.0236 15.6681L21.2179 8.41414L21.465 7.85294H20.8518H17.7219L20.9924 0.415571C21.0028 0.406369 21.0097 0.401888 21.0129 0.4H25.3966L21.9305 5.79746L21.5348 6.41361H22.267H25.3447ZM25.6061 0.0729731C25.6061 0.0729649 25.6058 0.0736097 25.6052 0.0749291C25.6057 0.0736405 25.606 0.0729812 25.6061 0.0729731Z" fill="#FFEB9F" stroke="url(#paint0_linear_3120_9042)" stroke-width="0.8"/>
<defs>
<linearGradient id="paint0_linear_3120_9042" x1="21.5" y1="0" x2="21.5" y2="17" gradientUnits="userSpaceOnUse">
<stop stop-color="#FF9A11"/>
<stop offset="0.47" stop-color="#FFC800"/>
<stop offset="1" stop-color="#FFB109"/>
</linearGradient>
</defs>
</svg>
