<svg width="133" height="44" viewBox="0 0 133 44" fill="none" xmlns="http://www.w3.org/2000/svg">
<path d="M18.5049 28V12.128H20.9369L21.1609 15.168C21.6515 14.1227 22.3982 13.2907 23.4009 12.672C24.4035 12.0533 25.6409 11.744 27.1129 11.744V14.56H26.3769C25.4382 14.56 24.5742 14.7307 23.7849 15.072C22.9955 15.392 22.3662 15.9467 21.8969 16.736C21.4275 17.5253 21.1929 18.6133 21.1929 20V28H18.5049ZM37.2659 28.384C35.7512 28.384 34.4072 28.0427 33.2339 27.36C32.0605 26.656 31.1325 25.6853 30.4499 24.448C29.7885 23.2107 29.4579 21.7493 29.4579 20.064C29.4579 18.4 29.7885 16.9493 30.4499 15.712C31.1112 14.4533 32.0285 13.4827 33.2019 12.8C34.3965 12.096 35.7725 11.744 37.3299 11.744C38.8659 11.744 40.1885 12.096 41.2979 12.8C42.4285 13.4827 43.2925 14.3893 43.8899 15.52C44.4872 16.6507 44.7859 17.8667 44.7859 19.168C44.7859 19.4027 44.7752 19.6373 44.7539 19.872C44.7539 20.1067 44.7539 20.3733 44.7539 20.672H32.1139C32.1779 21.888 32.4552 22.9013 32.9459 23.712C33.4579 24.5013 34.0872 25.0987 34.8339 25.504C35.6019 25.9093 36.4125 26.112 37.2659 26.112C38.3752 26.112 39.3032 25.856 40.0499 25.344C40.7965 24.832 41.3405 24.1387 41.6819 23.264H44.3379C43.9112 24.736 43.0899 25.9627 41.8739 26.944C40.6792 27.904 39.1432 28.384 37.2659 28.384ZM37.2659 14.016C35.9859 14.016 34.8445 14.4107 33.8419 15.2C32.8605 15.968 32.2952 17.0987 32.1459 18.592H42.1299C42.0659 17.1627 41.5752 16.0427 40.6579 15.232C39.7405 14.4213 38.6099 14.016 37.2659 14.016ZM52.2996 28L46.2836 12.128H49.0996L53.8676 25.408L58.6676 12.128H61.4196L55.4036 28H52.2996ZM64.0579 28.16C63.5245 28.16 63.0765 27.9893 62.7139 27.648C62.3725 27.2853 62.2019 26.848 62.2019 26.336C62.2019 25.824 62.3725 25.3973 62.7139 25.056C63.0765 24.6933 63.5245 24.512 64.0579 24.512C64.5699 24.512 64.9965 24.6933 65.3379 25.056C65.7005 25.3973 65.8819 25.824 65.8819 26.336C65.8819 26.848 65.7005 27.2853 65.3379 27.648C64.9965 27.9893 64.5699 28.16 64.0579 28.16Z" fill="white"/>
<path d="M74.7239 28.384C73.3585 28.384 72.2385 28.1707 71.3639 27.744C70.4892 27.296 69.8385 26.7093 69.4119 25.984C68.9852 25.2587 68.7719 24.4587 68.7719 23.584C68.7719 22.112 69.3479 20.9173 70.4999 20C71.6519 19.0827 73.3799 18.624 75.6839 18.624H79.7159V18.24C79.7159 17.152 79.4065 16.352 78.7879 15.84C78.1692 15.328 77.4012 15.072 76.4839 15.072C75.6519 15.072 74.9265 15.2747 74.3079 15.68C73.6892 16.064 73.3052 16.64 73.1559 17.408H69.1559C69.2625 16.256 69.6465 15.2533 70.3079 14.4C70.9905 13.5467 71.8652 12.896 72.9319 12.448C73.9985 11.9787 75.1932 11.744 76.5159 11.744C78.7772 11.744 80.5585 12.3093 81.8599 13.44C83.1612 14.5707 83.8119 16.1707 83.8119 18.24V28H80.3239L79.9399 25.44C79.4705 26.2933 78.8092 26.9973 77.9559 27.552C77.1239 28.1067 76.0465 28.384 74.7239 28.384ZM75.6519 25.184C76.8252 25.184 77.7319 24.8 78.3719 24.032C79.0332 23.264 79.4492 22.3147 79.6199 21.184H76.1319C75.0439 21.184 74.2652 21.3867 73.7959 21.792C73.3265 22.176 73.0919 22.656 73.0919 23.232C73.0919 23.8507 73.3265 24.3307 73.7959 24.672C74.2652 25.0133 74.8839 25.184 75.6519 25.184ZM94.5739 28C92.9099 28 91.5765 27.5947 90.5739 26.784C89.5712 25.9733 89.0699 24.5333 89.0699 22.464V15.552H86.3499V12.128H89.0699L89.5499 7.872H93.1659V12.128H97.4539V15.552H93.1659V22.496C93.1659 23.264 93.3259 23.7973 93.6459 24.096C93.9872 24.3733 94.5632 24.512 95.3739 24.512H97.3579V28H94.5739ZM107.531 28.384C106.123 28.384 104.885 28.16 103.819 27.712C102.752 27.2427 101.899 26.6027 101.259 25.792C100.619 24.9813 100.235 24.0427 100.107 22.976H104.235C104.363 23.5947 104.704 24.128 105.259 24.576C105.835 25.0027 106.571 25.216 107.467 25.216C108.363 25.216 109.013 25.0347 109.419 24.672C109.845 24.3093 110.059 23.8933 110.059 23.424C110.059 22.7413 109.76 22.2827 109.163 22.048C108.565 21.792 107.733 21.5467 106.667 21.312C105.984 21.1627 105.291 20.9813 104.587 20.768C103.883 20.5547 103.232 20.288 102.635 19.968C102.059 19.6267 101.589 19.2 101.227 18.688C100.864 18.1547 100.683 17.504 100.683 16.736C100.683 15.328 101.237 14.144 102.347 13.184C103.477 12.224 105.056 11.744 107.083 11.744C108.96 11.744 110.453 12.1813 111.563 13.056C112.693 13.9307 113.365 15.136 113.579 16.672H109.707C109.472 15.4987 108.587 14.912 107.051 14.912C106.283 14.912 105.685 15.0613 105.259 15.36C104.853 15.6587 104.651 16.032 104.651 16.48C104.651 16.9493 104.96 17.3227 105.579 17.6C106.197 17.8773 107.019 18.1333 108.043 18.368C109.152 18.624 110.165 18.912 111.083 19.232C112.021 19.5307 112.768 19.9893 113.323 20.608C113.877 21.2053 114.155 22.0693 114.155 23.2C114.176 24.1813 113.92 25.0667 113.387 25.856C112.853 26.6453 112.085 27.264 111.083 27.712C110.08 28.16 108.896 28.384 107.531 28.384Z" fill="#00B3FF"/>
</svg>
